# xmcd CD database file
#
# Track frame offsets:
#	150
#	17377
#	39777
#	61657
#	81605
#	96300
#	116400
#	135987
#	156977
#	177230
#
# Disc length: 2607 seconds
#
# Revision: 0
# Processed by: cddbd v1.5.1PL0 Copyright (c) Steve Scherf et al.
# Submitted via: CDex 1.51
#
DISCID=720a2d0a
DTITLE=Las Chicas Del Can - Caribe
DYEAR=1988
DGENRE=Merengue
TTITLE0=Papi tu
TTITLE1=Juana la cubana
TTITLE2=Pepe
TTITLE3=Romeo y Julieta
TTITLE4=Merengue de carnaval
TTITLE5=El negro no puede
TTITLE6=Tu esclava
TTITLE7=Champaing
TTITLE8=Beberte
TTITLE9=Permíteme estar contigo
EXTD=YEAR: 1988
EXTT0=
EXTT1=
EXTT2=
EXTT3=
EXTT4=
EXTT5=
EXTT6=
EXTT7=
EXTT8=
EXTT9=
PLAYORDER=
